<?xml version="1.0" encoding="utf-8"?>
<!-- Generator: Adobe Illustrator 22.1.0, SVG Export Plug-In . SVG Version: 6.00 Build 0)  -->
<svg version="1.1" id="Layer_1" xmlns="http://www.w3.org/2000/svg" xmlns:xlink="http://www.w3.org/1999/xlink" x="0px" y="0px"
	 viewBox="0 0 727.4 190.9" enable-background="new 0 0 727.4 190.9" xml:space="preserve">
<g>
	<g>
		<path fill="#003C71" d="M185.4,50.9l-29.5,69.6c-0.8,1.9-2.6,3.2-4.8,3.2l-14.9,0l-12.8-35.7l-15.6,32.8c-0.8,1.8-2.6,3-4.7,3
			l-14.6,0L62.7,50.9h23l14.4,46.4l14.6-33.7l-4.6-12.8h20.6l15.7,46.4l17.9-46.4H185.4z"/>
		<path fill="#003C71" d="M243.3,50.9l-1.8,10.4c-0.4,2.4-2.6,4.3-5.1,4.3h-24.7l-2.4,13.6l28.1,0l-1.8,10.4
			c-0.4,2.4-2.6,4.3-5.1,4.3l-23.7,0l-2.6,15l29.1,0l-1.8,10.4c-0.4,2.4-2.6,4.3-5.1,4.3l-46.4,0l12.7-72.8H243.3z"/>
		<path fill="#003C71" d="M302.8,102.1c0,17.2-21.1,22.7-35.4,22.7c-12.6,0-19.5-2.4-27.3-5.8l3-17c3.5,3.7,15,7.8,24.8,7.8
			c5.5,0,12-2,12-6.6c0-11.3-31.3-9.8-31.3-31.5c0-12.4,11.6-21.9,31.3-21.9c11.4,0,19.5,2.3,24.3,4.4l-1.7,9.6
			c-0.3,2-2.1,3.4-4.1,3.4c-0.5,0-1-0.1-1.5-0.3c-5.7-2.2-11-2.8-15.2-2.8c-2.7,0-10.8,0.5-10.8,5.9
			C271,80.7,302.8,79.9,302.8,102.1z"/>
		<path fill="#003C71" d="M375.8,50.9L374,61.3c-0.4,2.4-2.6,4.3-5.1,4.3h-17.3l-9.4,53.7c-0.4,2.4-2.6,4.3-5.1,4.3l-17.3,0l10.2-58
			h-21.6l2.6-14.7H375.8z"/>
		<path fill="#003C71" d="M405.5,50.9l-11.4,65.2c-4.1,23.2-18.2,34.8-33.2,38.9L349,141c10.7-1.5,20.4-7.5,23.5-24.8l11.4-65.2
			L405.5,50.9z"/>
		<path fill="#003C71" d="M467.2,50.9l-1.8,10.4c-0.4,2.4-2.6,4.3-5.1,4.3l-24.7,0l-2.4,13.6l28.1,0l-1.8,10.4
			c-0.4,2.4-2.6,4.3-5.1,4.3h-23.7l-2.6,15l29.1,0l-1.8,10.4c-0.4,2.4-2.6,4.3-5.1,4.3h-46.4l12.7-72.8H467.2z"/>
		<path fill="#003C71" d="M537.5,50.9l-1.8,10.4c-0.4,2.4-2.6,4.3-5.1,4.3h-17.3l-9.4,53.7c-0.4,2.4-2.6,4.3-5.1,4.3l-17.3,0
			l10.2-58H470l2.6-14.7H537.5z"/>
	</g>
	<g>
		<g>
			<path fill="#00AAA6" d="M585.3,82.4l-11.5-17.1c0,0-5.2,5.8-6.3,7.1c-1.2,1.3-2.3,2.1-4.2,1.9c-2.4-0.4-13.2-2.6-13.2-2.6
				s-0.8,13.2-1,14.5c-0.1,1.3-0.6,3-2.9,5L585.3,82.4z"/>
			<path fill="#00AAA6" d="M629,72.7l13.6-24.7c0,0-8.9,3.9-11.9,5.2c-2.9,1.3-4.1,1.1-4.6-1c-0.4-2-2.6-17.1-2.7-18
				c-0.8,0.9-15.7,16-17.8,18c-2.2,2.1-3.6,2.3-5.4,1c-1.9-1.3-7.5-5.1-7.5-5.1l-7.1,34.4L629,72.7z"/>
			<path fill="#00AAA6" d="M654.1,86.2c0.9-1.3,10.8-14.5,10.8-14.5S652.8,74,650,74.3c-2.2,0.3-2.5-0.6-2.6-1.9
				c-0.1-0.7-0.5-8-0.5-8L629.3,73l-40.7,48l30.1,4.7c0,0,0.1-4.6,0.2-8c0.2-3.4,2.1-4,3.3-4.7c1.1-0.7,35.5-20.5,35.5-20.5
				l-3.4-1.9C652,89.4,653.2,87.5,654.1,86.2"/>
		</g>
		<path fill="#003C71" d="M541,92.2c0,0,14.5,17.1,15.1,17.9c3.4,4.1,3.4,5.7-0.1,10c-2.8,3.4-4.5,5.6-4.5,5.6s20.2-3.4,22.9-3.9
			c2.6-0.4,5.2,0.3,4.5,3.8c-0.4,2.4-2.8,15.7-2.8,15.7l12-20.4l21.2-36.1l-63.8,6.9L541,92.2z"/>
		<polygon fill="#FFFFFF" points="629.3,73 588.6,121 588.1,120.9 609.3,84.8 545.6,91.7 546.2,91.2 585.3,82.5 585.7,82.4 
			629,72.7 		"/>
	</g>
</g>
<rect fill="none" width="727.4" height="190.9"/>
</svg>
