<?xml version="1.0" encoding="utf-8"?>
<!-- Generator: Adobe Illustrator 21.1.0, SVG Export Plug-In . SVG Version: 6.00 Build 0)  -->
<svg version="1.1" id="Layer_1" xmlns="http://www.w3.org/2000/svg" xmlns:xlink="http://www.w3.org/1999/xlink" x="0px" y="0px"
	 viewBox="0 0 80 80" style="enable-background:new 0 0 80 80;" xml:space="preserve">
<style type="text/css">
	.st0{fill-rule:evenodd;clip-rule:evenodd;fill:#003C71;}
	.st1{fill:#FFFFFF;}
</style>
<path class="st0" d="M78.1,40.3c0,0-30.2-30.2-35.4-35.4c-5.2-5.2-24.8-5-32.2-5C3.1,0,0.2,4,0.1,10.5C-0.1,17-0.1,37.6,5,42.7
	c5.1,5.1,35.4,35.4,35.4,35.4c2.6,2.6,6.7,2.6,9.3,0l28.4-28.5C80.6,47.1,80.6,42.9,78.1,40.3z M17.8,26.6c-4.8,0-8.6-3.9-8.6-8.6
	c0-4.8,3.9-8.6,8.6-8.6c4.8,0,8.6,3.9,8.6,8.6C26.5,22.8,22.6,26.6,17.8,26.6z"/>
<path class="st1" d="M60.4,56.2l-7.6-7.6c1.4-2.3,2.3-4.9,2.3-7.8c0-8-6.5-14.5-14.5-14.5c-8,0-14.5,6.5-14.5,14.5
	c0,8,6.5,14.5,14.5,14.5c3,0,5.8-0.9,8.1-2.5l7.6,7.5c0.3,0.3,0.6,0.4,0.9,0.4l0.1,0.1l0.1-0.1c0.3,0,0.7-0.2,0.9-0.4l2.1-2.1
	C61,57.7,61,56.7,60.4,56.2z M40.6,50.1c-5.1,0-9.3-4.2-9.3-9.3s4.2-9.3,9.3-9.3c5.1,0,9.3,4.2,9.3,9.3S45.7,50.1,40.6,50.1z
	 M60.3,57.3c0-0.1,0-0.1,0-0.2l0.1,0.1L60.3,57.3z"/>
</svg>
